# xmcd CD database file
#
# Track frame offsets:
#	150
#	21031
#	36744
#	46407
#	65743
#	75960
#	85961
#	101288
#	114553
#	133457
#	160640
#
# Disc length: 2375 seconds
#
# Revision: 0
# Processed by: cddbd v1.5.2PL0 Copyright (c) Steve Scherf et al.
# Submitted via: CDex 1.51
#
DISCID=8d09450b
DTITLE=Don Gabbert - Alone On The Porch
DYEAR=2004
DGENRE=Country
TTITLE0=Carrick Fergus
TTITLE1=Spancill Hill
TTITLE2=Daddy Does His Ranching In The Evening
TTITLE3=The Wind That Shakes The Barley
TTITLE4=Reduced To Carbon
TTITLE5=Let's Pretend
TTITLE6=The Cuckoo
TTITLE7=The Parting Glass
TTITLE8=Red Red Rose
TTITLE9=Tejas Go Bragh (The Song)
TTITLE10=Days Of Gold
EXTD=YEAR: 2004
EXTT0=
EXTT1=
EXTT2=
EXTT3=
EXTT4=
EXTT5=
EXTT6=
EXTT7=
EXTT8=
EXTT9=
EXTT10=
PLAYORDER=
